<?xml version="1.0" encoding="utf-8"?>
<!-- Generator: Adobe Illustrator 26.5.0, SVG Export Plug-In . SVG Version: 6.00 Build 0)  -->
<svg version="1.1" id="Capa_1" xmlns="http://www.w3.org/2000/svg" xmlns:xlink="http://www.w3.org/1999/xlink" x="0px" y="0px"
	 viewBox="0 0 1000 172.86" style="enable-background:new 0 0 1000 172.86;" xml:space="preserve">
<style type="text/css">
	.st0{fill:none;stroke:#FF0382;stroke-miterlimit:10;stroke-dasharray:6;}
	.st1{fill:#FF0382;}
</style>
<polyline class="st0" points="500,21.63 500,33.19 711.69,33.19 719.72,39.3 726.36,33.3 945.02,33.74 945.02,23.96 "/>
<g>
	<g>
		<g>
			<path class="st1" d="M722.39,58.23c3.07,4.44,3.29,9.98,3.51,15.2c0.23,5.57,0.28,11.16-0.29,16.71
				c-1.04,10.14-4.42,20.21-11.83,27.48c-3.75,3.68-8.36,6.38-13.53,7.46c-0.47,0.1-0.27,0.82,0.2,0.72
				c9.37-1.97,16.74-9.11,20.97-17.47c5.18-10.23,5.68-22.08,5.29-33.32c-0.2-5.82-0.23-12.2-3.67-17.18
				C722.77,57.46,722.12,57.83,722.39,58.23L722.39,58.23z"/>
		</g>
	</g>
	<g>
		<g>
			<path class="st1" d="M700.08,119.84c-1.92,1.37-3.71,2.91-5.33,4.63c-0.82,0.87-1.6,1.78-2.34,2.73
				c-0.54,0.7-1.15,1.54-0.82,2.47c0.63,1.79,3.58,1.55,5.02,1.64c2.75,0.18,5.51,0.36,8.26,0.55c0.48,0.03,0.48-0.72,0-0.75
				c-2.32-0.15-4.65-0.31-6.97-0.46c-1.14-0.08-2.29-0.13-3.44-0.23c-0.69-0.06-1.79-0.2-2.13-0.91c-0.43-0.89,0.81-2.05,1.31-2.66
				c0.67-0.81,1.37-1.59,2.1-2.34c1.45-1.48,3.03-2.82,4.71-4.02C700.85,120.2,700.47,119.55,700.08,119.84L700.08,119.84z"/>
		</g>
	</g>
</g>
</svg>
